<?xml version="1.0" encoding="UTF-8" standalone="no"?>
<!DOCTYPE svg PUBLIC "-//W3C//DTD SVG 1.1//EN"
 "http://www.w3.org/Graphics/SVG/1.1/DTD/svg11.dtd">
<!-- Generated by graphviz version 2.43.0 (0)
 -->
<!-- Title: %3 Pages: 1 -->
<svg width="385pt" height="100pt"
 viewBox="0.00 0.00 385.00 100.00" xmlns="http://www.w3.org/2000/svg" xmlns:xlink="http://www.w3.org/1999/xlink">
<g id="graph0" class="graph" transform="scale(1 1) rotate(0) translate(4 96)">
<title>%3</title>
<polygon fill="white" stroke="transparent" points="-4,4 -4,-96 381,-96 381,4 -4,4"/>
<!-- 123181753631664 -->
<g id="node1" class="node">
<title>123181753631664</title>
<polygon fill="none" stroke="black" points="0,-55.5 0,-91.5 128,-91.5 128,-55.5 0,-55.5"/>
<text text-anchor="middle" x="13" y="-69.8" font-family="Times,serif" font-size="14.00">b</text>
<polyline fill="none" stroke="black" points="26,-55.5 26,-91.5 "/>
<text text-anchor="middle" x="77" y="-69.8" font-family="Times,serif" font-size="14.00">data 3.0000</text>
</g>
<!-- 123181770596400* -->
<g id="node4" class="node">
<title>123181770596400*</title>
<ellipse fill="none" stroke="black" cx="191" cy="-45.5" rx="27" ry="18"/>
<text text-anchor="middle" x="191" y="-41.8" font-family="Times,serif" font-size="14.00">*</text>
</g>
<!-- 123181753631664&#45;&gt;123181770596400* -->
<g id="edge2" class="edge">
<title>123181753631664&#45;&gt;123181770596400*</title>
<path fill="none" stroke="black" d="M128.23,-59.34C137.53,-57.25 146.81,-55.17 155.24,-53.29"/>
<polygon fill="black" stroke="black" points="156.06,-56.69 165.05,-51.09 154.53,-49.86 156.06,-56.69"/>
</g>
<!-- 123181768203424 -->
<g id="node2" class="node">
<title>123181768203424</title>
<polygon fill="none" stroke="black" points="0.5,-0.5 0.5,-36.5 127.5,-36.5 127.5,-0.5 0.5,-0.5"/>
<text text-anchor="middle" x="13" y="-14.8" font-family="Times,serif" font-size="14.00">a</text>
<polyline fill="none" stroke="black" points="25.5,-0.5 25.5,-36.5 "/>
<text text-anchor="middle" x="76.5" y="-14.8" font-family="Times,serif" font-size="14.00">data 2.0000</text>
</g>
<!-- 123181768203424&#45;&gt;123181770596400* -->
<g id="edge3" class="edge">
<title>123181768203424&#45;&gt;123181770596400*</title>
<path fill="none" stroke="black" d="M127.87,-32.08C137.29,-34.11 146.7,-36.15 155.24,-37.99"/>
<polygon fill="black" stroke="black" points="154.66,-41.45 165.18,-40.14 156.14,-34.61 154.66,-41.45"/>
</g>
<!-- 123181770596400 -->
<g id="node3" class="node">
<title>123181770596400</title>
<polygon fill="none" stroke="black" points="254,-27.5 254,-63.5 377,-63.5 377,-27.5 254,-27.5"/>
<text text-anchor="middle" x="264.5" y="-41.8" font-family="Times,serif" font-size="14.00"> </text>
<polyline fill="none" stroke="black" points="275,-27.5 275,-63.5 "/>
<text text-anchor="middle" x="326" y="-41.8" font-family="Times,serif" font-size="14.00">data 6.0000</text>
</g>
<!-- 123181770596400*&#45;&gt;123181770596400 -->
<g id="edge1" class="edge">
<title>123181770596400*&#45;&gt;123181770596400</title>
<path fill="none" stroke="black" d="M218.28,-45.5C225.89,-45.5 234.58,-45.5 243.56,-45.5"/>
<polygon fill="black" stroke="black" points="243.78,-49 253.78,-45.5 243.78,-42 243.78,-49"/>
</g>
</g>
</svg>
